<svg xmlns="http://www.w3.org/2000/svg" width="36" height="35" viewBox="0 0 36 35"><g><g><path fill="#0668e1" d="M35.375 30.826l-.02 1.88c.072.473-.064.955-.374 1.32a2.52 2.52 0 0 1-1.954.847H2.973a2.52 2.52 0 0 1-1.954-.848 1.648 1.648 0 0 1-.372-1.319l-.02-1.88a.55.55 0 0 1 .02-.11c-.023-.18-.02-.36.01-.537l1.812-9.801a2.08 2.08 0 0 1 1.255-1.494 2.876 2.876 0 0 1-.781-1.964V3.02A2.899 2.899 0 0 1 5.839.126h24.323a2.9 2.9 0 0 1 2.896 2.896V16.92a2.876 2.876 0 0 1-.781 1.964 2.08 2.08 0 0 1 1.254 1.494l1.813 9.8c.03.178.033.359.01.537.01.036.017.073.02.111zM4.1 16.92a1.74 1.74 0 0 0 1.738 1.737h24.323A1.74 1.74 0 0 0 31.9 16.92V3.02a1.74 1.74 0 0 0-1.738-1.737H5.84A1.74 1.74 0 0 0 4.1 3.021zM1.796 30.39a.702.702 0 0 0 .168.583c.258.282.627.438 1.01.425h30.053a1.31 1.31 0 0 0 1.01-.425.702.702 0 0 0 .168-.584l-1.813-9.8c-.166-.5-.654-.82-1.178-.773H4.787a1.135 1.135 0 0 0-1.178.772L1.796 30.39zm32.41 2.48a.585.585 0 0 1-.01-.122l.004-.477a2.607 2.607 0 0 1-1.173.286H2.973c-.408-.002-.81-.1-1.173-.286l.005.478c0 .04-.003.081-.011.121a.493.493 0 0 0 .122.422c.275.287.66.441 1.057.423h30.054c.397.018.782-.136 1.057-.423a.493.493 0 0 0 .123-.422zM9.01 29.818a1.13 1.13 0 0 1-.262-.907l1.076-6.95c.097-.579.605-1 1.193-.987h13.969a1.184 1.184 0 0 1 1.193.988l1.075 6.949a1.13 1.13 0 0 1-.261.907c-.234.27-.575.425-.932.422H9.94a1.223 1.223 0 0 1-.931-.422zm.883-.73l16.168-.006-1.026-6.943-.05-.007H11.017zm20.85-5.218a.579.579 0 1 1-1.158 0 .579.579 0 0 1 1.157 0zm-1.159 1.158a.579.579 0 1 1-1.158 0 .579.579 0 0 1 1.158 0zm1.158 1.158a.58.58 0 1 1-1.158 0 .58.58 0 0 1 1.158 0zm1.159-1.158a.58.58 0 1 1-1.159 0 .58.58 0 0 1 1.159 0zM7.576 15.762V4.179a1.74 1.74 0 0 1 1.737-1.737h17.375c.959 0 1.736.778 1.737 1.737v11.583a1.74 1.74 0 0 1-1.737 1.737H9.313a1.74 1.74 0 0 1-1.737-1.737zm1.158 0c0 .32.26.579.58.579h17.374a.58.58 0 0 0 .579-.58V4.18a.58.58 0 0 0-.58-.58H9.314a.58.58 0 0 0-.579.58zM4.68 23.29a1.738 1.738 0 1 1 3.475.001 1.738 1.738 0 0 1-3.475 0zm1.159 0a.58.58 0 1 0 1.158.001.58.58 0 0 0-1.158 0zm9.266-13.888a1.737 1.737 0 1 1-3.475 0 1.737 1.737 0 0 1 3.475 0zm-1.159 0a.58.58 0 1 0-1.158 0 .58.58 0 0 0 1.158 0zm10.425 0a1.738 1.738 0 1 1-3.475 0 1.738 1.738 0 0 1 3.475 0zm-1.158 0a.58.58 0 1 0-1.159 0 .58.58 0 0 0 1.159 0zm-8.074 2.616c.064-.31.26-.575.535-.73a1.23 1.23 0 0 1 1.016-.09 4.438 4.438 0 0 0 2.622 0 1.225 1.225 0 0 1 1.015.09c.275.154.47.42.535.728.023.114.034.23.034.347 0 1.256-1.272 2.24-2.896 2.24-1.623 0-2.895-.984-2.895-2.24 0-.116.011-.232.034-.345zm1.124.345c0 .586.796 1.082 1.737 1.082.942 0 1.738-.496 1.738-1.082a.646.646 0 0 0-.005-.075.067.067 0 0 0-.04.004 5.618 5.618 0 0 1-3.384 0 .074.074 0 0 0-.042-.004.646.646 0 0 0-.004.075zm-5.97-4.587a.208.208 0 0 1-.098-.207 2.85 2.85 0 0 1 2.09-2.198 2.884 2.884 0 0 1 2.956.769.29.29 0 0 1-.256.476l-.016-.002a6.139 6.139 0 0 0-2.321.092c-.77.207-1.49.565-2.118 1.055l-.007.005a.208.208 0 0 1-.23.01zm10.724-1.16a.29.29 0 0 1-.257-.476 2.884 2.884 0 0 1 2.956-.769 2.85 2.85 0 0 1 2.09 2.198.208.208 0 1 1-.328.197l-.007-.005a5.953 5.953 0 0 0-2.118-1.055 6.138 6.138 0 0 0-2.321-.092l-.016.002zM14.526 23.87c0 .153-.062.3-.17.41l-1.159 1.157a.579.579 0 1 1-.818-.819l1.158-1.158a.58.58 0 0 1 .989.41zm3.298-.403a.579.579 0 0 1 .007.812l-3.475 3.475a.58.58 0 1 1-.819-.819l3.475-3.475a.58.58 0 0 1 .812.007z"/></g></g></svg>