<svg xmlns="http://www.w3.org/2000/svg" width="36" height="35" viewBox="0 0 36 35"><g><g><path fill="#0668e1" d="M35.375 4.18v20.848a4.072 4.072 0 0 1-2.378 3.678l1.89 2.429a2.317 2.317 0 1 1-3.657 2.845l-3.81-4.897H4.68a4.059 4.059 0 0 1-4.054-4.055V4.18A4.058 4.058 0 0 1 4.68.125h26.64a4.058 4.058 0 0 1 4.055 4.054zm-1.402 27.666l-2.397-3.08-.008-.01-8.977-11.537-1.828 1.423 11.38 14.626a1.159 1.159 0 0 0 1.83-1.422zm-3.425-6.287c.79-.179 1.35-.88 1.352-1.689V11.129a1.74 1.74 0 0 0-1.738-1.737H5.838a1.74 1.74 0 0 0-1.737 1.737V23.87a1.74 1.74 0 0 0 1.737 1.737h18.877l-5.221-6.71v-.001a.585.585 0 0 1-.09-.162l-1.54-4.362a.866.866 0 0 1 .093-.763c-.31.266-.706.414-1.115.416a1.738 1.738 0 1 1 1.738-1.738 1.72 1.72 0 0 1-.397 1.091.865.865 0 0 1 .982-.019l3.849 2.566c.042.045.087.087.136.126zm-8.845-9.116l-2.458-1.638.984 2.785zm-4.86-4.735a.58.58 0 1 0 0 1.16.58.58 0 0 0 0-1.16zm17.374-7.529a2.9 2.9 0 0 0-2.896-2.896H4.68A2.9 2.9 0 0 0 1.783 4.18v20.85a2.9 2.9 0 0 0 2.896 2.895h21.838l-.901-1.158H5.838a2.9 2.9 0 0 1-2.895-2.896V11.129a2.9 2.9 0 0 1 2.895-2.896h24.324a2.9 2.9 0 0 1 2.896 2.896V23.87a2.89 2.89 0 0 1-1.76 2.653l.961 1.235a2.908 2.908 0 0 0 1.958-2.73zm-23.166.58a2.317 2.317 0 0 1-2.317 2.316H5.26a2.316 2.316 0 1 1 0-4.633h3.475a2.316 2.316 0 0 1 2.317 2.316zM5.259 5.915h1.158V3.6H5.26a1.16 1.16 0 0 0 0 2.317zm4.634-1.158c0-.64-.519-1.158-1.159-1.158H7.576v2.316h1.158c.64 0 1.159-.518 1.159-1.158zm23.165 0a2.317 2.317 0 0 1-2.316 2.317h-3.475a2.317 2.317 0 0 1 0-4.633h3.475a2.316 2.316 0 0 1 2.316 2.316zm-5.791 1.158h1.158V3.6h-1.158a1.16 1.16 0 0 0 0 2.317zM31.9 4.758c0-.64-.519-1.158-1.158-1.158h-1.159v2.316h1.159c.64 0 1.158-.518 1.158-1.158zM7.576 14.025a1.737 1.737 0 1 1 0-3.475 1.737 1.737 0 0 1 0 3.475zm0-1.159a.579.579 0 1 0 0-1.158.579.579 0 0 0 0 1.158zm.193 2.896h8.88a.58.58 0 0 1 .561.436c.14.552.211 1.118.211 1.688 0 .053-.005.105-.007.157.001.013.007.023.007.036a.529.529 0 0 1-.01.054c-.115 3.184-2.4 5.737-5.202 5.737-2.801 0-5.087-2.553-5.201-5.737a.547.547 0 0 1-.011-.054c0-.013.006-.023.007-.035-.001-.053-.007-.105-.007-.159 0-.569.07-1.135.21-1.687a.58.58 0 0 1 .562-.436zm8.437 2.896H8.212a5.219 5.219 0 0 0 1.012 2.482 4.027 4.027 0 0 1 5.97 0 5.22 5.22 0 0 0 1.012-2.482zm-1.83 3.3a2.878 2.878 0 0 0-4.333 0 3.49 3.49 0 0 0 4.332 0zM8.237 16.92a5.678 5.678 0 0 0-.067.58h8.075a5.65 5.65 0 0 0-.066-.58z"/></g></g></svg>