<svg xmlns="http://www.w3.org/2000/svg" width="36" height="35" viewBox="0 0 36 35"><g><g><path fill="#0668e1" d="M15.273 3.433a.573.573 0 0 1-.122-.63.67.67 0 0 1 .122-.192.606.606 0 0 1 .822 0c.051.056.092.12.122.191a.577.577 0 0 1-.122.631.573.573 0 0 1-.411.168.573.573 0 0 1-.411-.168zm2.148-.41c0-.321.26-.58.58-.58h2.316a.579.579 0 1 1 0 1.158H18a.58.58 0 0 1-.58-.579zm-2.316 10.423a1.737 1.737 0 1 1-3.475 0 1.737 1.737 0 0 1 3.475 0zm-1.158 0a.58.58 0 1 0-1.159 0 .58.58 0 0 0 1.159 0zm6.949 0a1.737 1.737 0 1 1 3.474 0 1.737 1.737 0 0 1-3.474 0zm1.158 0a.579.579 0 1 0 1.158 0 .579.579 0 0 0-1.158 0zm-8.493 3.474h8.879a.58.58 0 0 1 .561.437c.14.552.211 1.118.211 1.687 0 .053-.005.105-.007.158.001.013.007.023.007.035a.565.565 0 0 1-.01.054c-.115 3.185-2.4 5.737-5.201 5.737-2.802 0-5.088-2.552-5.202-5.737a.556.556 0 0 1-.01-.054c0-.012.006-.022.006-.035 0-.053-.007-.105-.007-.158 0-.569.071-1.135.211-1.687a.58.58 0 0 1 .562-.437zm8.436 2.896h-7.993a5.215 5.215 0 0 0 1.012 2.482 4.027 4.027 0 0 1 5.97 0 5.218 5.218 0 0 0 1.011-2.482zm-1.83 3.3a2.878 2.878 0 0 0-4.333 0 3.489 3.489 0 0 0 4.333 0zm-6.138-5.037a5.71 5.71 0 0 0-.066.579h8.075a5.74 5.74 0 0 0-.066-.58zM10 11.24a.208.208 0 0 1-.328-.197 2.85 2.85 0 0 1 2.09-2.197 2.883 2.883 0 0 1 2.955.769.291.291 0 0 1-.255.476l-.017-.002a6.15 6.15 0 0 0-2.32.092c-.77.206-1.49.565-2.118 1.054l-.007.005zm11.542-1.149a.292.292 0 0 1-.257-.476 2.883 2.883 0 0 1 2.955-.769 2.85 2.85 0 0 1 2.091 2.198.208.208 0 1 1-.328.197l-.007-.006a5.955 5.955 0 0 0-2.118-1.054 6.15 6.15 0 0 0-2.32-.092l-.016.002zM.627 34.294c0-.32.26-.58.58-.58h2.895a.58.58 0 0 1 0 1.159H1.206a.579.579 0 0 1-.579-.58zm34.747 0c0 .32-.26.579-.58.579h-10.07l-.045.001-.023-.001H11.354l-.029.001-.057-.001h-4.85a.579.579 0 1 1 0-1.158h1.267a6.772 6.772 0 0 1-1.633-2.195 7.872 7.872 0 0 1-.412-1.042 6.633 6.633 0 0 1 .192-4.928c.157-.297.354-.571.586-.814V21.02a7.765 7.765 0 0 1-4.243-3.11c-2.023-3.11-1.105-7.06-.72-8.352A3.778 3.778 0 0 1 2.67 6.575C3.831 5.413 5.35 5.05 6.418 5.58V3.943A3.945 3.945 0 0 1 10.472.126h15.057a3.945 3.945 0 0 1 4.053 3.817v1.643c1.07-.54 2.598-.178 3.763.989a4.175 4.175 0 0 1 1.19 2.176c.047.267.056.54.026.811.387 1.296 1.3 5.24-.72 8.348a7.774 7.774 0 0 1-4.259 3.116v3.708c.233.243.431.518.589.816a6.633 6.633 0 0 1 .191 4.93c-.113.356-.25.705-.412 1.042a6.768 6.768 0 0 1-1.633 2.193h6.477c.32 0 .58.26.58.579zm-6.23-8.21a2.08 2.08 0 0 0-1.175-1.071c-1.434-.454-3.276 1.125-4.018 3.451a5.949 5.949 0 0 0-.15 3.352c.044.158.099.314.162.467a.578.578 0 1 1-1.07.443c-.022-.053-.038-.114-.06-.17h-1.516c.163.219.368.402.602.54a5.345 5.345 0 0 0 2.696.619h.124c.142 0 .285-.004.433-.011a3.995 3.995 0 0 0 1.748-.39c.124-.07.243-.148.357-.232a5.412 5.412 0 0 0 1.628-2.06c.139-.288.256-.587.352-.892a5.47 5.47 0 0 0-.114-4.046zM4.953 13.25a4.46 4.46 0 0 0 .624 2.46c.224.332.51.619.84.845v-6.368c-.022.024-.039.05-.062.073a4.56 4.56 0 0 1-1.11.818 9.187 9.187 0 0 0-.293 2.172zm2.622 10.706c.038-.013.072-.036.111-.048 2.055-.654 4.4 1.108 5.403 4.021.01 0 .018-.005.028-.005h9.764c.011 0 .02.005.03.006 1.002-2.914 3.345-4.676 5.405-4.021.037.012.07.033.107.047V7.435 4.18h-4.17a1.357 1.357 0 0 0-1.138.608 2.512 2.512 0 0 1-2.104 1.129h-6.023a2.513 2.513 0 0 1-2.105-1.13 1.356 1.356 0 0 0-1.138-.607h-4.17v3.131c.013.153.013.307 0 .46zM29.66 10.26c-.029-.03-.05-.061-.078-.09v6.396c.338-.23.629-.52.856-.858a4.462 4.462 0 0 0 .624-2.458 9.18 9.18 0 0 0-.292-2.172 4.563 4.563 0 0 1-1.11-.818zM13.465 31.398h9.073a7.103 7.103 0 0 1 .066-2.316h-9.206c.15.763.172 1.546.067 2.316zm1.72 2.317h5.63a3.006 3.006 0 0 1-.798-1.158h-4.031a3.006 3.006 0 0 1-.8 1.158zm18.548-22.659a2.266 2.266 0 0 1-1.377.445c-.105 0-.21-.007-.315-.019.114.583.174 1.175.18 1.768a5.584 5.584 0 0 1-.811 3.088 4.564 4.564 0 0 1-1.828 1.567v1.9a6.521 6.521 0 0 0 3.29-2.528c1.34-2.063 1.17-4.616.861-6.22zm-4.15-3.445v.029c.074.688.392 1.327.896 1.801.305.308.668.553 1.068.721l.007.004a1.46 1.46 0 0 0 1.587-.111c.254-.307.348-.716.253-1.103a3.05 3.05 0 0 0-.867-1.559c-.889-.887-2.107-1.168-2.662-.614a1.095 1.095 0 0 0-.283.832zM7.765 3.022h3.98a2.513 2.513 0 0 1 2.105 1.129c.252.382.68.61 1.138.608h6.023c.457.003.885-.226 1.138-.608a2.513 2.513 0 0 1 2.105-1.129h3.98a2.89 2.89 0 0 0-2.706-1.737H10.472a2.891 2.891 0 0 0-2.706 1.737zm-4.891 7.033a1.455 1.455 0 0 0 1.582.114l.022-.01a3.309 3.309 0 0 0 1.058-.718 2.955 2.955 0 0 0 .881-1.693v-.376a1.001 1.001 0 0 0-.267-.593 1.072 1.072 0 0 0-.78-.285 2.843 2.843 0 0 0-1.882.9c-.888.887-1.169 2.106-.614 2.661zm3.543 9.743v-1.9a4.566 4.566 0 0 1-1.811-1.557 5.592 5.592 0 0 1-.812-3.09 9.794 9.794 0 0 1 .18-1.769c-.105.012-.21.019-.315.02-.495.006-.98-.15-1.378-.445-.309 1.605-.478 4.158.863 6.221a6.52 6.52 0 0 0 3.273 2.52zm4.85 13.917h.119a5.35 5.35 0 0 0 2.694-.618c.235-.139.44-.322.604-.54h-1.517c-.021.055-.037.115-.06.169a.579.579 0 1 1-1.07-.443c.064-.153.118-.31.164-.469a5.953 5.953 0 0 0-.15-3.35c-.743-2.326-2.58-3.908-4.017-3.451a2.079 2.079 0 0 0-1.176 1.071 5.466 5.466 0 0 0-.115 4.044c.096.305.213.603.352.891.365.81.923 1.517 1.627 2.06.114.086.234.164.358.235a4.013 4.013 0 0 0 1.755.39c.147.008.29.01.432.01z"/></g></g></svg>