<svg xmlns="http://www.w3.org/2000/svg" width="36" height="35" viewBox="0 0 36 35"><g><g><path fill="#0668e1" d="M4.68 34.295c0 .32-.26.58-.58.58H1.206a.58.58 0 1 1 0-1.16h2.896c.32 0 .579.26.579.58zM35.375 3.02v20.85a2.9 2.9 0 0 1-2.896 2.895h-9.81c.339 3.43 3.596 4.491 4.097 4.633h.501a1.74 1.74 0 0 1 1.737 1.738 1.713 1.713 0 0 1-.106.579h5.898a.58.58 0 1 1 0 1.158H6.417a.58.58 0 0 1 0-1.158h.686a1.718 1.718 0 0 1-.106-.58A1.74 1.74 0 0 1 8.734 31.4h.501c.5-.142 3.758-1.203 4.097-4.633h-9.81A2.9 2.9 0 0 1 .626 23.87V3.02A2.899 2.899 0 0 1 3.522.126h28.957a2.899 2.899 0 0 1 2.896 2.896zm-33.591 0v18.533h32.433V3.02a1.74 1.74 0 0 0-1.738-1.738H3.522a1.74 1.74 0 0 0-1.738 1.738zm25.483 29.537H8.734a.58.58 0 0 0 0 1.158h18.533a.58.58 0 0 0 0-1.158zm-5.755-5.792h-7.023a6.139 6.139 0 0 1-2.702 4.633h12.426a6.138 6.138 0 0 1-2.701-4.633zm12.705-2.896v-1.158H1.784v1.158a1.74 1.74 0 0 0 1.738 1.738h28.957c.96-.001 1.737-.778 1.738-1.738zM15.105 8.812a1.738 1.738 0 1 1-3.476 0 1.738 1.738 0 0 1 3.476 0zm-1.159 0a.58.58 0 1 0-1.158 0 .58.58 0 0 0 1.158 0zm6.95 0a1.738 1.738 0 1 1 3.476 0 1.738 1.738 0 0 1-3.476 0zm1.159 0a.58.58 0 1 0 1.158 0 .58.58 0 0 0-1.158 0zm1.158 5.598c0 .054-.006.106-.007.159 0 .012.007.023.007.035a.547.547 0 0 1-.011.054c-.114 3.184-2.4 5.737-5.202 5.737-2.8 0-5.087-2.553-5.201-5.737a.592.592 0 0 1-.011-.054c0-.012.006-.023.007-.035-.001-.053-.007-.105-.007-.158 0-.569.071-1.136.211-1.687a.58.58 0 0 1 .561-.437h8.88a.58.58 0 0 1 .562.437c.14.551.21 1.118.21 1.686zm-1.215.773h-7.995a5.22 5.22 0 0 0 1.012 2.482 4.028 4.028 0 0 1 5.97 0 5.22 5.22 0 0 0 1.013-2.482zm-7.969-1.737a5.599 5.599 0 0 0-.066.579h8.075a5.574 5.574 0 0 0-.066-.58zm6.138 5.037a2.878 2.878 0 0 0-4.333 0 3.488 3.488 0 0 0 4.333 0zM9.999 6.608a.208.208 0 0 1-.329-.198 2.85 2.85 0 0 1 2.091-2.197 2.885 2.885 0 0 1 2.955.769.29.29 0 0 1-.255.476l-.017-.002a6.136 6.136 0 0 0-2.32.092 5.95 5.95 0 0 0-2.119 1.055l-.007.004zm11.542-1.15a.292.292 0 0 1-.256-.476 2.885 2.885 0 0 1 2.955-.769 2.85 2.85 0 0 1 2.09 2.198.208.208 0 1 1-.328.197l-.006-.005a5.95 5.95 0 0 0-2.118-1.055 6.134 6.134 0 0 0-2.321-.092l-.016.002zm-18.599-.7V3.021a.579.579 0 1 1 1.159 0v1.737a.58.58 0 1 1-1.159 0zm0 11.004V7.075a.58.58 0 0 1 1.159 0v8.687a.58.58 0 1 1-1.159 0zm0 4.054V18.08a.58.58 0 1 1 1.159 0v1.737a.579.579 0 1 1-1.159 0zM31.9 4.758V3.021a.579.579 0 1 1 1.159 0v1.737a.58.58 0 1 1-1.159 0zm0 11.004V7.075a.58.58 0 0 1 1.159 0v8.687a.58.58 0 1 1-1.159 0zm0 4.054V18.08a.58.58 0 1 1 1.159 0v1.737a.579.579 0 1 1-1.159 0z"/></g></g></svg>